<svg width="150" height="69" viewBox="0 0 150 69" fill="none" xmlns="http://www.w3.org/2000/svg">
<path d="M15.4545 59.8226V65.8986C14.718 66.5391 13.7334 67.0754 12.5006 67.5077C11.2837 67.94 9.79475 68.1562 8.03356 68.1562C6.28839 68.1562 4.78338 67.7639 3.51854 66.9794C2.1256 66.1308 1.42913 64.922 1.42913 63.3529V38.9526C1.42913 37.4796 5.03956 36.7431 12.2604 36.7431H26.3579C26.8222 37.5916 27.1664 38.5443 27.3906 39.601C27.6147 40.6417 27.7268 41.5783 27.7268 42.4109C27.7268 46.0773 26.1177 47.9106 22.8995 47.9106H14.59C13.9816 47.9106 13.6774 48.1667 13.6774 48.6791V48.8472C13.6774 48.9433 13.6934 49.0073 13.7254 49.0393H24.3405C25.1571 50.4323 25.5653 52.0013 25.5653 53.7465C25.5653 55.9239 25.077 57.6211 24.1003 58.8379H12.3324C12.2044 58.966 12.1403 59.1101 12.1403 59.2702C12.1403 59.5264 12.3324 59.6785 12.7167 59.7265C13.117 59.7745 13.5653 59.7985 14.0616 59.7985C14.5579 59.7985 15.0223 59.8065 15.4545 59.8226Z" fill="white"/>
<path d="M42.3526 50.6484C42.4166 50.6964 42.6008 50.7204 42.905 50.7204C43.2092 50.7204 43.4413 50.6004 43.6014 50.3602C43.7615 50.12 43.8416 49.7278 43.8416 49.1834V48.3188C43.8416 47.7424 43.7695 47.3342 43.6254 47.094C43.4974 46.8378 43.2732 46.7098 42.953 46.7098C42.6488 46.7098 42.4407 46.7418 42.3286 46.8058C42.3446 46.8859 42.3526 47.022 42.3526 47.2141V50.6484ZM54.7449 56.1241L58.8997 60.3749C58.6115 62.8726 57.819 64.7939 56.5221 66.1388C55.2412 67.4837 53.464 68.1562 51.1905 68.1562C49.4774 68.1562 47.9884 67.7479 46.7235 66.9313C45.1064 65.9066 43.8976 64.2735 43.0971 62.032L42.2325 59.6785C41.5601 59.6624 40.7115 59.5744 39.6868 59.4143C39.5587 59.5424 39.4947 59.7185 39.4947 59.9426C39.4947 60.3749 40.1431 60.6311 41.44 60.7112L42.8089 64.1695V66.2108C40.9677 67.5077 38.6061 68.1562 35.7241 68.1562C33.6588 68.1562 32.0097 67.7319 30.7768 66.8833C29.544 66.0347 28.9276 64.8019 28.9276 63.1848V40.3695C28.9276 39.665 29.576 38.9846 30.8729 38.3281C32.1698 37.6557 33.8669 37.1193 35.9643 36.7191C38.0617 36.3028 40.1591 36.0946 42.2565 36.0946C47.0597 36.0946 50.8143 37.0793 53.5201 39.0486C56.37 41.114 57.795 44.02 57.795 47.7665C57.795 49.9119 57.1865 51.7531 55.9697 53.2902C54.7689 54.8112 53.2479 55.8679 51.4067 56.4603C51.4067 56.9726 51.7109 57.2288 52.3193 57.2288C52.9437 57.2288 53.7522 56.8606 54.7449 56.1241Z" fill="white"/>
<path d="M75.3027 51.1527C75.3027 49.5517 75.2307 48.4549 75.0866 47.8625C74.9425 47.2541 74.6783 46.9499 74.294 46.9499C74.0539 46.9499 73.8377 47.03 73.6456 47.1901C73.6776 47.4783 73.7256 47.8625 73.7897 48.3429C73.8537 48.8232 73.8857 49.8479 73.8857 51.4169V52.978C73.8857 54.0667 73.8617 54.8592 73.8137 55.3556C73.7657 55.8519 73.7256 56.2762 73.6936 56.6284C73.6776 56.8205 73.6616 57.0127 73.6456 57.2048C73.8377 57.3649 74.0539 57.445 74.294 57.445C74.6783 57.445 74.9425 57.1488 75.0866 56.5564C75.2307 55.948 75.3027 54.8432 75.3027 53.2421V51.1527ZM74.3421 68.4924C71.4921 68.4924 68.8744 67.908 66.4888 66.7392C64.1192 65.5544 62.2059 63.7532 60.7489 61.3356C59.292 58.9019 58.5635 55.8679 58.5635 52.2335C58.5635 46.9659 60.1485 42.8512 63.3187 39.8892C66.1365 37.2794 69.763 35.9746 74.198 35.9746C79.0172 35.9746 82.8277 37.4716 85.6296 40.4656C88.4475 43.4436 89.8565 47.3662 89.8565 52.2335C89.8565 57.6451 88.3515 61.7759 85.3414 64.6258C82.6036 67.2035 78.9371 68.4924 74.3421 68.4924Z" fill="white"/>
<path d="M91.1773 63.2809V39.2167C91.1773 38.3842 91.8418 37.6957 93.1707 37.1513C94.5156 36.591 96.0926 36.3108 97.9019 36.3108C98.9266 36.3108 99.8872 36.4389 100.784 36.695C101.696 36.9352 102.393 37.2474 102.873 37.6317C103.53 38.4642 104.13 39.3128 104.674 40.1774C105.219 41.042 106.444 43.0593 108.349 46.2294C108.525 46.2294 108.685 46.1734 108.829 46.0613C108.973 45.9492 109.045 45.7811 109.045 45.557C109.045 45.3168 108.845 44.8605 108.445 44.1881L105.851 39.7211V38.4002C106.668 37.7277 107.66 37.2074 108.829 36.8391C109.998 36.4709 111.207 36.2868 112.456 36.2868C114.489 36.2868 116.13 36.655 117.379 37.3915C118.836 38.2721 119.564 39.649 119.564 41.5223V64.2655C119.564 65.6425 118.908 66.6431 117.595 67.2675C116.474 67.8279 114.977 68.1081 113.104 68.1081C112.063 68.1081 111.047 67.996 110.054 67.7719C109.077 67.5477 108.309 67.2595 107.748 66.9073C106.612 65.4503 105.483 63.8172 104.362 62.008L101.913 57.9253C101.448 57.9893 101.216 58.2375 101.216 58.6698C101.216 58.942 101.448 59.4623 101.913 60.2308L104.915 65.0821V66.3549C103.057 67.5557 100.96 68.1562 98.6223 68.1562C96.3008 68.1562 94.4756 67.7319 93.1467 66.8833C91.8338 66.0347 91.1773 64.8339 91.1773 63.2809Z" fill="white"/>
<path d="M141.851 49.0153V65.8986C141.115 66.5391 140.13 67.0754 138.897 67.5077C137.665 67.94 136.168 68.1562 134.406 68.1562C132.645 68.1562 131.148 67.7639 129.915 66.9794C128.522 66.1308 127.826 64.93 127.826 63.3769V47.9106H122.23C121.077 46.2615 120.501 44.4602 120.501 42.5069C120.501 41.178 120.709 40.0253 121.125 39.0486C121.558 38.0559 122.086 37.2874 122.711 36.7431H147.543C148.007 37.4636 148.392 38.3361 148.696 39.3608C149 40.3855 149.152 41.4022 149.152 42.4109C149.152 44.3001 148.736 45.6931 147.903 46.5897C147.071 47.4703 145.95 47.9106 144.541 47.9106H137.504C137.456 48.0226 137.432 48.1427 137.432 48.2708C137.432 48.559 137.6 48.7511 137.937 48.8472C138.289 48.9593 139.041 49.0153 140.194 49.0153H141.851Z" fill="white"/>
<path d="M14.3738 23.8498C14.9022 23.7538 15.1664 23.4896 15.1664 23.0573C15.1664 22.609 15.0223 22.1127 14.7341 21.5683C14.4619 21.0079 14.0536 20.4796 13.5092 19.9833C12.0843 18.7024 10.155 18.062 7.72135 18.062C6.52055 18.062 5.3998 18.2621 4.3591 18.6624C3.25436 18.102 2.37377 17.2134 1.71733 15.9966C1.06089 14.7798 0.732666 13.4669 0.732666 12.0579C0.732666 8.37546 2.2697 5.53356 5.34376 3.53221C7.98553 1.81906 11.2437 0.962488 15.1183 0.962488C18.0003 0.962488 20.4259 1.2747 22.3952 1.89912C24.3645 2.50752 25.9736 3.29205 27.2224 4.2527C27.5907 5.3094 27.7748 6.40614 27.7748 7.5429C27.7748 8.67967 27.6227 9.71236 27.3185 10.641C27.0143 11.5696 26.574 12.3141 25.9976 12.8745C25.4533 12.4742 24.4686 12.0659 23.0436 11.6497C21.6187 11.2334 20.3218 11.0252 19.153 11.0252C17.9842 11.0252 17.1997 11.0973 16.7994 11.2414C16.4152 11.3855 16.2231 11.6096 16.2231 11.9138C16.2231 12.0579 16.2471 12.194 16.2951 12.3221C16.8555 12.178 17.576 12.106 18.4566 12.106C21.5787 12.106 24.1244 12.8425 26.0937 14.3154C28.4152 16.0766 29.576 18.7184 29.576 22.2408C29.576 25.3469 28.3192 27.9246 25.8055 29.974C23.0837 32.1674 19.4252 33.2642 14.8301 33.2642C12.3004 33.2642 10.107 33.072 8.24971 32.6878C6.39246 32.3195 4.58325 31.6631 2.82207 30.7185C1.62126 28.9733 1.02086 27.2041 1.02086 25.4109C1.02086 23.6017 1.63727 22.1047 2.8701 20.9199C4.10293 19.7351 5.61594 19.1427 7.40915 19.1427C9.21836 19.1427 10.6913 19.5109 11.8281 20.2474C12.9809 20.9839 13.8295 22.1847 14.3738 23.8498Z" fill="white"/>
<path d="M50.2059 13.8832V30.7665C49.4694 31.4069 48.4847 31.9433 47.2519 32.3756C46.019 32.8079 44.522 33.024 42.7609 33.024C40.9997 33.024 39.5027 32.6317 38.2699 31.8472C36.8769 30.9986 36.1805 29.7978 36.1805 28.2448V12.7784H30.5847C29.4319 11.1293 28.8555 9.3281 28.8555 7.37479C28.8555 6.0459 29.0637 4.89313 29.48 3.91647C29.9122 2.9238 30.4406 2.15529 31.065 1.61092H55.8977C56.362 2.33141 56.7462 3.20399 57.0505 4.22868C57.3547 5.25337 57.5068 6.27005 57.5068 7.27873C57.5068 9.16799 57.0905 10.5609 56.2579 11.4575C55.4254 12.3381 54.3046 12.7784 52.8957 12.7784H45.8589C45.8109 12.8905 45.7869 13.0106 45.7869 13.1387C45.7869 13.4269 45.955 13.619 46.2912 13.715C46.6435 13.8271 47.396 13.8832 48.5487 13.8832H50.2059Z" fill="white"/>
<path d="M73.8617 16.0206C73.8617 14.4195 73.7897 13.3228 73.6456 12.7304C73.5015 12.122 73.2373 11.8178 72.8531 11.8178C72.6129 11.8178 72.3967 11.8978 72.2046 12.0579C72.2366 12.3461 72.2847 12.7304 72.3487 13.2107C72.4128 13.691 72.4448 14.7157 72.4448 16.2848V17.8458C72.4448 18.9345 72.4208 19.7271 72.3727 20.2234C72.3247 20.7197 72.2847 21.144 72.2527 21.4963C72.2366 21.6884 72.2206 21.8805 72.2046 22.0727C72.3967 22.2328 72.6129 22.3128 72.8531 22.3128C73.2373 22.3128 73.5015 22.0166 73.6456 21.4242C73.7897 20.8158 73.8617 19.7111 73.8617 18.11V16.0206ZM72.9011 33.3602C70.0512 33.3602 67.4334 32.7758 65.0478 31.6071C62.6782 30.4223 60.7649 28.621 59.308 26.2034C57.851 23.7698 57.1225 20.7358 57.1225 17.1013C57.1225 11.8338 58.7076 7.71902 61.8777 4.75703C64.6956 2.14728 68.322 0.842407 72.757 0.842407C77.5762 0.842407 81.3868 2.33941 84.1887 5.33342C87.0066 8.31142 88.4155 12.2341 88.4155 17.1013C88.4155 22.5129 86.9105 26.6437 83.9005 29.4936C81.1626 32.0714 77.4962 33.3602 72.9011 33.3602Z" fill="white"/>
<path d="M103.161 15.5163C103.225 15.5643 103.41 15.5883 103.714 15.5883C104.018 15.5883 104.25 15.4682 104.41 15.2281C104.57 14.9879 104.65 14.5956 104.65 14.0513V13.1867C104.65 12.6103 104.578 12.202 104.434 11.9619C104.306 11.7057 104.082 11.5776 103.762 11.5776C103.458 11.5776 103.249 11.6096 103.137 11.6737C103.153 11.7537 103.161 11.8898 103.161 12.0819V15.5163ZM115.554 20.9919L119.708 25.2428C119.42 27.7405 118.628 29.6617 117.331 31.0066C116.05 32.3516 114.273 33.024 111.999 33.024C110.286 33.024 108.797 32.6157 107.532 31.7992C105.915 30.7745 104.706 29.1414 103.906 26.8999L103.041 24.5463C102.369 24.5303 101.52 24.4422 100.496 24.2821C100.368 24.4102 100.303 24.5863 100.303 24.8105C100.303 25.2428 100.952 25.499 102.249 25.579L103.618 29.0373V31.0787C101.776 32.3756 99.4149 33.024 96.5329 33.024C94.4676 33.024 92.8185 32.5997 91.5856 31.7511C90.3528 30.9026 89.7364 29.6698 89.7364 28.0527V5.23736C89.7364 4.53288 90.3848 3.85243 91.6817 3.19599C92.9786 2.52354 94.6757 1.98718 96.7731 1.58691C98.8705 1.17063 100.968 0.962488 103.065 0.962488C107.869 0.962488 111.623 1.94715 114.329 3.91647C117.179 5.98186 118.604 8.88781 118.604 12.6343C118.604 14.7798 117.995 16.621 116.779 18.158C115.578 19.679 114.057 20.7358 112.215 21.3282C112.215 21.8405 112.52 22.0967 113.128 22.0967C113.752 22.0967 114.561 21.7284 115.554 20.9919Z" fill="white"/>
<path d="M131.428 1.61092H145.286C145.75 2.37944 146.094 3.22 146.318 4.13262C146.542 5.02922 146.655 5.83776 146.655 6.55824C146.655 8.17533 146.334 9.39214 145.694 10.2087C145.07 11.0252 144.189 11.4335 143.052 11.4335H133.374C132.781 11.4335 132.485 11.6657 132.485 12.13V12.3221C132.485 12.4182 132.501 12.4822 132.533 12.5142H144.013C144.301 13.0106 144.549 13.635 144.757 14.3875C144.949 15.204 145.045 15.9325 145.045 16.573C145.045 18.4782 144.693 19.9672 143.989 21.04H138.777C136.344 21.04 134.695 21.136 133.83 21.3282C132.965 21.5043 132.429 21.6564 132.221 21.7845C132.013 21.9286 131.909 22.1127 131.909 22.3368C131.909 22.561 132.021 22.7371 132.245 22.8652C133.077 22.593 133.95 22.4009 134.863 22.2888C136.063 22.1767 137.368 22.1207 138.777 22.1207H145.526C146.502 23.4976 146.991 25.1547 146.991 27.092C146.991 28.1808 146.855 29.2215 146.583 30.2141C146.31 31.2068 145.902 32.0073 145.358 32.6157H127.37C125.384 32.6157 123.791 32.1354 122.59 31.1748C121.278 30.1501 120.621 28.6451 120.621 26.6597V3.82041C120.621 3.05189 121.502 2.49151 123.263 2.13928C125.024 1.78704 127.746 1.61092 131.428 1.61092Z" fill="white"/>
</svg>
