<svg width="48" height="42" viewBox="0 0 48 42" fill="none" xmlns="http://www.w3.org/2000/svg">
<path d="M4.30492 25.6594C3.03825 25.6594 1.87825 25.3527 0.824917 24.7394L0.884917 22.2994H2.48492L2.82492 24.2794C3.06492 24.3727 3.30492 24.446 3.54492 24.4994C3.78492 24.5394 4.04492 24.5594 4.32492 24.5594C4.89825 24.5594 5.33825 24.466 5.64492 24.2794C5.95158 24.0794 6.10492 23.7794 6.10492 23.3794C6.10492 23.0727 5.99158 22.806 5.76492 22.5794C5.53825 22.3527 5.09158 22.146 4.42492 21.9594L3.34492 21.6394C2.57158 21.4127 1.97158 21.046 1.54492 20.5394C1.13158 20.0327 0.924917 19.406 0.924917 18.6594C0.924917 17.7394 1.28492 16.966 2.00492 16.3394C2.72492 15.6994 3.75825 15.3794 5.10492 15.3794C5.69158 15.3794 6.23158 15.4527 6.72492 15.5994C7.23158 15.7327 7.74492 15.9327 8.26492 16.1994L8.12492 18.3794H6.52492L6.12492 16.6594C5.84492 16.5527 5.47825 16.4994 5.02492 16.4994C4.57158 16.4994 4.20492 16.5927 3.92492 16.7794C3.65825 16.966 3.52492 17.246 3.52492 17.6194C3.52492 17.886 3.63158 18.126 3.84492 18.3394C4.05825 18.5394 4.51158 18.746 5.20492 18.9594L6.18492 19.2394C7.13158 19.5194 7.81158 19.9194 8.22492 20.4394C8.63825 20.9594 8.84492 21.5927 8.84492 22.3394C8.84492 23.3927 8.43825 24.2127 7.62492 24.7994C6.82492 25.3727 5.71825 25.6594 4.30492 25.6594Z" fill="black"/>
<path d="M13.6865 25.6594C12.7931 25.6594 12.0931 25.446 11.5865 25.0194C11.0798 24.5794 10.8265 23.866 10.8265 22.8794C10.8265 22.5327 10.8265 22.2127 10.8265 21.9194C10.8398 21.6127 10.8465 21.266 10.8465 20.8794V17.0594H9.54648V15.8794L11.0265 15.6794L12.0265 12.8794H14.0665L14.0265 15.6994H16.1265V17.0594H14.0265V22.6594C14.0265 23.126 14.1198 23.4727 14.3065 23.6994C14.5065 23.9127 14.7531 24.0194 15.0465 24.0194C15.3931 24.0194 15.7531 23.8727 16.1265 23.5794L16.6265 24.0594C16.3598 24.566 15.9865 24.9594 15.5065 25.2394C15.0398 25.5194 14.4331 25.6594 13.6865 25.6594Z" fill="black"/>
<path d="M22.0763 25.6594C21.0363 25.6594 20.1363 25.446 19.3763 25.0194C18.6163 24.5794 18.0297 23.9727 17.6163 23.1994C17.203 22.4127 16.9963 21.506 16.9963 20.4794C16.9963 19.4527 17.2163 18.5594 17.6563 17.7994C18.1097 17.0394 18.723 16.446 19.4963 16.0194C20.2697 15.5927 21.1297 15.3794 22.0763 15.3794C23.023 15.3794 23.8763 15.586 24.6363 15.9994C25.4097 16.4127 26.023 17.006 26.4763 17.7794C26.9297 18.5394 27.1563 19.4394 27.1563 20.4794C27.1563 21.5194 26.9497 22.426 26.5363 23.1994C26.123 23.9727 25.5363 24.5794 24.7763 25.0194C24.0163 25.446 23.1163 25.6594 22.0763 25.6594ZM22.0763 24.6194C22.6363 24.6194 23.0563 24.2927 23.3363 23.6394C23.6163 22.986 23.7563 21.9527 23.7563 20.5394C23.7563 19.1127 23.6163 18.0727 23.3363 17.4194C23.0563 16.766 22.6363 16.4394 22.0763 16.4394C21.503 16.4394 21.0763 16.766 20.7963 17.4194C20.5163 18.0727 20.3763 19.1127 20.3763 20.5394C20.3763 21.9527 20.5163 22.986 20.7963 23.6394C21.0763 24.2927 21.503 24.6194 22.0763 24.6194Z" fill="black"/>
<path d="M28.2649 25.3594V24.4194L29.3649 24.1994C29.3783 23.706 29.3849 23.1794 29.3849 22.6194C29.3849 22.0594 29.3849 21.5727 29.3849 21.1594V19.9794C29.3849 19.606 29.3783 19.2994 29.3649 19.0594C29.3649 18.8194 29.3583 18.5994 29.3449 18.3994C29.3449 18.186 29.3383 17.946 29.3249 17.6794L28.1049 17.4994V16.7194L32.0449 15.3794L32.4049 15.5994L32.5849 17.9594C32.8649 17.106 33.2582 16.466 33.7649 16.0394C34.2716 15.5994 34.7716 15.3794 35.2649 15.3794C35.7049 15.3794 36.0849 15.506 36.4049 15.7594C36.7249 15.9994 36.9249 16.366 37.0049 16.8594C36.9916 17.3794 36.8516 17.786 36.5849 18.0794C36.3183 18.3594 35.9849 18.4994 35.5849 18.4994C35.0249 18.4994 34.5116 18.186 34.0449 17.5594L33.9249 17.3994C33.6316 17.6794 33.3582 18.0327 33.1049 18.4594C32.8649 18.886 32.6916 19.3327 32.5849 19.7994V21.1594C32.5849 21.5727 32.5849 22.046 32.5849 22.5794C32.5849 23.1127 32.5916 23.6127 32.6049 24.0794L34.1849 24.4194V25.3594H28.2649Z" fill="black"/>
<path d="M42.2098 16.4194C41.8364 16.4194 41.4898 16.6527 41.1698 17.1194C40.8631 17.5727 40.6898 18.4127 40.6498 19.6394H42.3498C42.8298 19.6394 43.1498 19.546 43.3098 19.3594C43.4831 19.1594 43.5698 18.8327 43.5698 18.3794C43.5698 17.7127 43.4364 17.2194 43.1698 16.8994C42.9031 16.5794 42.5831 16.4194 42.2098 16.4194ZM42.2498 25.6594C41.2764 25.6594 40.4164 25.4594 39.6698 25.0594C38.9231 24.646 38.3364 24.0594 37.9098 23.2994C37.4831 22.526 37.2698 21.606 37.2698 20.5394C37.2698 19.4194 37.5164 18.4794 38.0098 17.7194C38.5164 16.946 39.1631 16.366 39.9498 15.9794C40.7364 15.5794 41.5564 15.3794 42.4098 15.3794C43.2898 15.3794 44.0364 15.566 44.6498 15.9394C45.2764 16.3127 45.7498 16.8194 46.0698 17.4594C46.3898 18.086 46.5498 18.806 46.5498 19.6194C46.5498 20.006 46.5098 20.3594 46.4298 20.6794H40.6498C40.7164 21.7327 41.0031 22.5127 41.5098 23.0194C42.0298 23.5127 42.6364 23.7594 43.3298 23.7594C43.8764 23.7594 44.3431 23.6594 44.7298 23.4594C45.1164 23.246 45.4564 22.986 45.7498 22.6794L46.4498 23.3194C46.0364 24.106 45.4764 24.6927 44.7698 25.0794C44.0631 25.466 43.2231 25.6594 42.2498 25.6594Z" fill="black"/>
<path d="M0.824917 41.3594V40.4194L1.92492 40.1994C1.93825 39.6927 1.94492 39.186 1.94492 38.6794C1.95825 38.1727 1.96492 37.666 1.96492 37.1594V33.0594H0.664917V31.8794L2.00492 31.7194C2.11158 30.8127 2.28492 30.086 2.52492 29.5394C2.77825 28.9794 3.11825 28.4794 3.54492 28.0394C4.03825 27.546 4.59158 27.1927 5.20492 26.9794C5.83158 26.7527 6.43158 26.6394 7.00492 26.6394C7.56492 26.6394 8.07158 26.746 8.52492 26.9594C8.97825 27.1594 9.27158 27.526 9.40492 28.0594C9.39158 28.4327 9.25825 28.7527 9.00492 29.0194C8.76492 29.2727 8.41825 29.3994 7.96492 29.3994C7.63158 29.3994 7.31825 29.286 7.02492 29.0594C6.73158 28.8327 6.44492 28.4727 6.16492 27.9794L6.00492 27.7394C5.64492 28.1127 5.39825 28.606 5.26492 29.2194C5.13158 29.8194 5.07825 30.646 5.10492 31.6994H7.24492V33.0594H5.14492V37.1594C5.14492 37.6527 5.14492 38.146 5.14492 38.6394C5.14492 39.1194 5.15158 39.606 5.16492 40.0994L6.70492 40.4194V41.3594H0.824917Z" fill="black"/>
<path d="M8.01101 41.3594V40.4194L9.11101 40.1994C9.12434 39.706 9.13101 39.1794 9.13101 38.6194C9.13101 38.0594 9.13101 37.5727 9.13101 37.1594V35.9794C9.13101 35.606 9.12434 35.2994 9.11101 35.0594C9.11101 34.8194 9.10434 34.5994 9.09101 34.3994C9.09101 34.186 9.08434 33.946 9.07101 33.6794L7.85101 33.4994V32.7194L11.791 31.3794L12.151 31.5994L12.331 33.9594C12.611 33.106 13.0043 32.466 13.511 32.0394C14.0177 31.5994 14.5177 31.3794 15.011 31.3794C15.451 31.3794 15.831 31.506 16.151 31.7594C16.471 31.9994 16.671 32.366 16.751 32.8594C16.7377 33.3794 16.5977 33.786 16.331 34.0794C16.0643 34.3594 15.731 34.4994 15.331 34.4994C14.771 34.4994 14.2577 34.186 13.791 33.5594L13.671 33.3994C13.3777 33.6794 13.1043 34.0327 12.851 34.4594C12.611 34.886 12.4377 35.3327 12.331 35.7994V37.1594C12.331 37.5727 12.331 38.046 12.331 38.5794C12.331 39.1127 12.3377 39.6127 12.351 40.0794L13.931 40.4194V41.3594H8.01101Z" fill="black"/>
<path d="M22.0959 41.6594C21.0559 41.6594 20.1559 41.446 19.3959 41.0194C18.6359 40.5794 18.0492 39.9727 17.6359 39.1994C17.2225 38.4127 17.0159 37.506 17.0159 36.4794C17.0159 35.4527 17.2359 34.5594 17.6759 33.7994C18.1292 33.0394 18.7425 32.446 19.5159 32.0194C20.2892 31.5927 21.1492 31.3794 22.0959 31.3794C23.0425 31.3794 23.8959 31.586 24.6559 31.9994C25.4292 32.4127 26.0425 33.006 26.4959 33.7794C26.9492 34.5394 27.1759 35.4394 27.1759 36.4794C27.1759 37.5194 26.9692 38.426 26.5559 39.1994C26.1425 39.9727 25.5559 40.5794 24.7959 41.0194C24.0359 41.446 23.1359 41.6594 22.0959 41.6594ZM22.0959 40.6194C22.6559 40.6194 23.0759 40.2927 23.3559 39.6394C23.6359 38.986 23.7759 37.9527 23.7759 36.5394C23.7759 35.1127 23.6359 34.0727 23.3559 33.4194C23.0759 32.766 22.6559 32.4394 22.0959 32.4394C21.5225 32.4394 21.0959 32.766 20.8159 33.4194C20.5359 34.0727 20.3959 35.1127 20.3959 36.5394C20.3959 37.9527 20.5359 38.986 20.8159 39.6394C21.0959 40.2927 21.5225 40.6194 22.0959 40.6194Z" fill="black"/>
<path d="M28.3044 41.3594V40.4194L29.3844 40.1794C29.3978 39.6994 29.4044 39.1794 29.4044 38.6194C29.4044 38.0594 29.4044 37.5727 29.4044 37.1594V35.9994C29.4044 35.4527 29.3978 35.0327 29.3844 34.7394C29.3844 34.4327 29.3711 34.0794 29.3444 33.6794L28.1244 33.4994V32.7194L32.0644 31.3794L32.4244 31.5994L32.5444 33.0394C33.0644 32.426 33.5778 31.9994 34.0844 31.7594C34.6044 31.506 35.1578 31.3794 35.7444 31.3794C36.6111 31.3794 37.3044 31.666 37.8244 32.2394C38.3578 32.8127 38.6245 33.6727 38.6245 34.8194V37.1594C38.6245 37.5994 38.6245 38.0994 38.6245 38.6594C38.6245 39.206 38.6311 39.726 38.6444 40.2194L39.6444 40.4194V41.3594H34.3644V40.4194L35.4044 40.1994C35.4178 39.706 35.4244 39.186 35.4244 38.6394C35.4244 38.0794 35.4244 37.586 35.4244 37.1594V35.0594C35.4244 34.4194 35.3378 33.9727 35.1644 33.7194C34.9911 33.4527 34.7111 33.3194 34.3244 33.3194C33.8044 33.3194 33.2311 33.5594 32.6044 34.0394V37.1594C32.6044 37.5727 32.6044 38.066 32.6044 38.6394C32.6044 39.1994 32.6111 39.726 32.6244 40.2194L33.5644 40.4194V41.3594H28.3044Z" fill="black"/>
<path d="M44.331 41.6594C43.4377 41.6594 42.7377 41.446 42.231 41.0194C41.7243 40.5794 41.471 39.866 41.471 38.8794C41.471 38.5327 41.471 38.2127 41.471 37.9194C41.4843 37.6127 41.491 37.266 41.491 36.8794V33.0594H40.191V31.8794L41.671 31.6794L42.671 28.8794H44.711L44.671 31.6994H46.771V33.0594H44.671V38.6594C44.671 39.126 44.7643 39.4727 44.951 39.6994C45.151 39.9127 45.3977 40.0194 45.691 40.0194C46.0377 40.0194 46.3977 39.8727 46.771 39.5794L47.271 40.0594C47.0043 40.566 46.631 40.9594 46.151 41.2394C45.6843 41.5194 45.0777 41.6594 44.331 41.6594Z" fill="black"/>
<path d="M35.5127 0.340637H11.0567L4.4047 7.87309L23.5 9L43.0451 7.87309L35.5127 0.340637Z" fill="black"/>
<path d="M12.3288 7.8731C12.3288 10.0473 10.5663 11.8098 8.39207 11.8098C6.21787 11.8098 4.45533 10.0473 4.45533 7.8731C8.66497 7.87308 6.21787 7.87313 8.39207 7.87313C10.5663 7.87313 8.1533 7.8731 12.3288 7.8731Z" fill="black"/>
<path d="M20.0079 7.8731C20.0079 10.0473 18.2454 11.8098 16.0712 11.8098C13.897 11.8098 12.1344 10.0473 12.1344 7.8731C16.3441 7.87308 13.897 7.87313 16.0712 7.87313C18.2454 7.87313 15.8324 7.8731 20.0079 7.8731Z" fill="black"/>
<path d="M27.687 7.8731C27.687 10.0473 25.9245 11.8098 23.7502 11.8098C21.576 11.8098 19.8135 10.0473 19.8135 7.8731C24.0231 7.87308 21.576 7.87313 23.7502 7.87313C25.9245 7.87313 23.5115 7.8731 27.687 7.8731Z" fill="black"/>
<path d="M35.3661 7.8731C35.3661 10.0473 33.6035 11.8098 31.4293 11.8098C29.2551 11.8098 27.4926 10.0473 27.4926 7.8731C31.7022 7.87308 29.2551 7.87313 31.4293 7.87313C33.6035 7.87313 31.1906 7.8731 35.3661 7.8731Z" fill="black"/>
<path d="M43.0451 7.87309C43.0451 10.0473 41.2826 11.8098 39.1084 11.8098C36.9342 11.8098 35.1717 10.0473 35.1717 7.8731C39.3813 7.87308 36.9342 7.87313 39.1084 7.87313C41.2826 7.87313 38.8696 7.87309 43.0451 7.87309Z" fill="black"/>
</svg>
