<svg width="153" height="54" viewBox="0 0 153 54" fill="none" xmlns="http://www.w3.org/2000/svg">
<path fill-rule="evenodd" clip-rule="evenodd" d="M51.8204 26.8158C51.9246 41.0734 40.4511 52.7161 26.1934 52.8204C11.9358 52.9246 0.293118 41.4511 0.18883 27.1934C0.084542 12.9358 11.5581 1.29311 25.8158 1.18883C40.0734 1.08454 51.7161 12.5581 51.8204 26.8158ZM33.474 16.5567L33.4959 19.5463L36.4854 19.5245C37.9803 19.5135 45.4764 22.4486 45.5092 26.9331C45.542 31.4176 38.0896 34.462 36.5947 34.4729L33.6051 34.4948L33.627 37.4845C33.6379 38.9794 30.7029 46.4755 26.2184 46.5083C21.7338 46.5411 18.6895 39.0887 18.6785 37.5939L18.6567 34.6042L15.6668 34.626C14.172 34.637 6.6759 31.7019 6.64309 27.2174C6.61029 22.7329 14.0627 19.6885 15.5575 19.6776L18.5474 19.6557L18.5255 16.666C18.5146 15.1711 21.4496 7.67504 25.9342 7.64224C30.4187 7.60944 33.4631 15.0618 33.474 16.5567Z" fill="#A41E16"/>
<path d="M61.2255 47.3777C61.1278 47.3582 61.079 47.2898 61.079 47.1726C61.079 46.9968 61.3085 46.8796 61.7675 46.821C62.8222 46.6648 63.3495 46.1082 63.3495 45.1511V37.4021C63.3495 36.9919 63.1249 36.7087 62.6757 36.5525C62.4804 36.4841 62.2704 36.4304 62.0458 36.3914C61.8212 36.3425 61.6405 36.2986 61.5038 36.2595C61.3769 36.2205 61.2938 36.1863 61.2548 36.157C61.2255 36.1179 61.2108 36.0447 61.2108 35.9373C61.2108 35.8201 61.2841 35.7224 61.4306 35.6443L65.1659 33.8865C65.2831 33.8279 65.3563 33.7986 65.3856 33.7986C65.5517 33.7986 65.6347 33.9158 65.6347 34.1501V45.1511C65.6347 46.1082 66.162 46.6648 67.2167 46.821C67.6757 46.8796 67.9052 46.9822 67.9052 47.1287C67.9052 47.2751 67.8563 47.3582 67.7587 47.3777H61.2255ZM64.2724 29.6824C63.872 29.6824 63.5155 29.5554 63.203 29.3015C62.9003 29.0476 62.7489 28.696 62.7489 28.2468C62.7489 27.7878 62.8954 27.4265 63.1884 27.1628C63.4813 26.8992 63.828 26.7673 64.2284 26.7673C64.6386 26.7673 64.9804 26.9236 65.2538 27.2361C65.537 27.5486 65.6786 27.8855 65.6786 28.2468C65.6786 28.6082 65.5468 28.9402 65.2831 29.2429C65.0194 29.5359 64.6825 29.6824 64.2724 29.6824ZM72.0226 36.113C71.964 36.113 71.9347 36.157 71.9347 36.2449V44.3308C71.9347 44.9167 72.0616 45.3757 72.3155 45.7078C72.5792 46.0398 72.9112 46.2058 73.3116 46.2058C73.712 46.2058 74.0587 46.1423 74.3517 46.0154C74.6544 45.8787 74.9132 45.7322 75.128 45.5759C75.3526 45.4197 75.5528 45.2781 75.7286 45.1511C75.9044 45.0144 76.0606 44.946 76.1974 44.946C76.3341 44.946 76.4024 44.9802 76.4024 45.0486C76.4024 45.283 76.378 45.4343 76.3292 45.5027C75.1573 47.0164 74.0245 47.7732 72.9308 47.7732C71.8468 47.7732 71.0265 47.4314 70.4698 46.7478C69.9229 46.0544 69.6495 45.2292 69.6495 44.2722V36.113H68.5509C68.2774 36.113 68.131 36.0251 68.1114 35.8494C68.1017 35.6736 68.131 35.5613 68.1993 35.5125C68.7169 35.1804 69.4298 34.5847 70.338 33.7253C70.4356 33.6179 70.5675 33.4568 70.7335 33.2419C70.8995 33.0271 71.1388 32.7341 71.4513 32.363C71.7735 31.9919 72.0177 31.8064 72.1837 31.8064C72.3497 31.8064 72.4327 31.8748 72.4327 32.0115C72.4327 32.031 72.2667 32.6707 71.9347 33.9304C71.9347 34.1062 72.0128 34.199 72.169 34.2087H75.9044C76.3341 34.2087 76.5489 34.8142 76.5489 36.0251C76.5489 36.0837 76.5099 36.113 76.4317 36.113H72.0226ZM96.0618 42.7634L96.0325 39.6726C96.0325 38.4128 95.9251 37.5291 95.7103 37.0212C95.4954 36.5134 95.222 36.1326 94.8899 35.8787C94.5579 35.615 94.1087 35.4832 93.5423 35.4832C92.9856 35.4832 91.7991 35.9226 89.9827 36.8015C89.7386 36.948 89.6116 37.0847 89.6019 37.2117V45.0925C89.6019 46.0789 90.1292 46.6453 91.1839 46.7917C91.6429 46.8601 91.8724 46.9724 91.8724 47.1287C91.8724 47.2751 91.8235 47.3582 91.7259 47.3777H85.1927C85.095 47.3582 85.0462 47.2898 85.0462 47.1726C85.0462 46.9871 85.2757 46.8601 85.7347 46.7917C86.7894 46.6453 87.3167 46.0789 87.3167 45.0925V37.7976C87.3167 36.2644 86.3694 35.4978 84.4749 35.4978C83.7815 35.4978 82.8196 35.908 81.5892 36.7283C81.2767 36.9333 81.0472 37.1238 80.9007 37.2996V45.0925C80.9007 46.0789 81.428 46.6453 82.4827 46.7917C82.9417 46.8601 83.1712 46.9724 83.1712 47.1287C83.1712 47.2751 83.1224 47.3582 83.0247 47.3777H76.4915C76.3938 47.3582 76.345 47.2898 76.345 47.1726C76.345 46.9871 76.5745 46.8601 77.0335 46.7917C78.0882 46.6453 78.6155 46.0886 78.6155 45.1218V36.6843C78.6155 36.2742 78.3909 35.991 77.9417 35.8347C77.7464 35.7664 77.5364 35.7126 77.3118 35.6736C77.0872 35.6248 76.9065 35.5808 76.7698 35.5417C76.6429 35.5027 76.5599 35.4685 76.5208 35.4392C76.4915 35.4001 76.4769 35.3269 76.4769 35.2195C76.4769 35.1023 76.5501 35.0046 76.6966 34.9265L80.4319 33.1687C80.5491 33.1101 80.6224 33.0808 80.6517 33.0808C80.8177 33.0808 80.9007 33.198 80.9007 33.4324V35.864C80.9104 35.9226 80.9446 35.9519 81.0032 35.9519C81.0716 35.9519 81.2327 35.8835 81.4866 35.7468C81.7503 35.6101 82.0921 35.4197 82.512 35.1755C82.9319 34.9216 83.4837 34.6287 84.1673 34.2966C84.8606 33.9646 85.5931 33.7986 86.3645 33.7986C87.6048 33.7986 88.4935 34.3308 89.0306 35.3953C89.2356 35.825 89.4212 36.0105 89.5872 35.9519C89.7532 35.8835 90.012 35.7615 90.3636 35.5857C91.1937 35.1755 92.0335 34.7751 92.8831 34.3845C93.7327 33.9939 94.4358 33.7986 94.9925 33.7986C97.2483 33.7986 98.3763 35.8542 98.3763 39.9656L98.2444 44.2429V45.0925C98.2444 45.8542 98.6253 46.3523 99.387 46.5867C99.7093 46.6941 100.017 46.7722 100.31 46.821C100.613 46.8601 100.808 46.8992 100.896 46.9382C100.993 46.9773 101.042 47.0554 101.042 47.1726C101.042 47.2898 100.993 47.3582 100.896 47.3777H93.8353C93.7376 47.3582 93.6888 47.2898 93.6888 47.1726C93.6888 46.9871 93.9183 46.8601 94.3772 46.7917C95.4222 46.6453 95.9446 46.0398 95.9446 44.9753C96.0228 44.4871 96.0618 43.7498 96.0618 42.7634ZM100.926 47.3777C100.829 47.3582 100.78 47.2898 100.78 47.1726C100.78 46.9968 101.009 46.8796 101.468 46.821C102.523 46.6648 103.05 46.1082 103.05 45.1511V37.4021C103.05 36.9919 102.826 36.7087 102.376 36.5525C102.181 36.4841 101.971 36.4304 101.747 36.3914C101.522 36.3425 101.341 36.2986 101.205 36.2595C101.078 36.2205 100.995 36.1863 100.956 36.157C100.926 36.1179 100.912 36.0447 100.912 35.9373C100.912 35.8201 100.985 35.7224 101.131 35.6443L104.867 33.8865C104.984 33.8279 105.057 33.7986 105.086 33.7986C105.252 33.7986 105.335 33.9158 105.335 34.1501V45.1511C105.335 46.1082 105.863 46.6648 106.917 46.821C107.376 46.8796 107.606 46.9822 107.606 47.1287C107.606 47.2751 107.557 47.3582 107.459 47.3777H100.926ZM103.973 29.6824C103.573 29.6824 103.216 29.5554 102.904 29.3015C102.601 29.0476 102.45 28.696 102.45 28.2468C102.45 27.7878 102.596 27.4265 102.889 27.1628C103.182 26.8992 103.529 26.7673 103.929 26.7673C104.339 26.7673 104.681 26.9236 104.955 27.2361C105.238 27.5486 105.379 27.8855 105.379 28.2468C105.379 28.6082 105.248 28.9402 104.984 29.2429C104.72 29.5359 104.383 29.6824 103.973 29.6824ZM118.916 42.7634L118.886 39.6726C118.886 38.4128 118.779 37.5291 118.564 37.0212C118.349 36.5134 118.076 36.1326 117.744 35.8787C117.412 35.615 116.963 35.4832 116.396 35.4832C115.84 35.4832 114.653 35.9226 112.837 36.8015C112.592 36.948 112.466 37.0847 112.456 37.2117V45.0925C112.456 46.0789 112.983 46.6453 114.038 46.7917C114.497 46.8601 114.726 46.9724 114.726 47.1287C114.726 47.2751 114.677 47.3582 114.58 47.3777H108.047C107.949 47.3582 107.9 47.2898 107.9 47.1726C107.9 46.9871 108.13 46.8601 108.589 46.7917C109.643 46.6453 110.171 46.0789 110.171 45.0925V36.6843C110.171 36.2742 109.946 35.991 109.497 35.8347C109.301 35.7664 109.092 35.7126 108.867 35.6736C108.642 35.6248 108.462 35.5808 108.325 35.5417C108.198 35.5027 108.115 35.4685 108.076 35.4392C108.047 35.4001 108.032 35.3269 108.032 35.2195C108.032 35.1023 108.105 35.0046 108.252 34.9265L111.987 33.1687C112.104 33.1101 112.177 33.0808 112.207 33.0808C112.373 33.0808 112.456 33.198 112.456 33.4324V35.7175C112.485 35.8152 112.524 35.864 112.573 35.864C112.632 35.864 112.842 35.7761 113.203 35.6003C114.043 35.1804 114.887 34.7751 115.737 34.3845C116.587 33.9939 117.29 33.7986 117.846 33.7986C120.102 33.7986 121.23 35.8542 121.23 39.9656L121.098 44.2429V45.0925C121.098 45.8542 121.479 46.3523 122.241 46.5867C122.563 46.6941 122.871 46.7722 123.164 46.821C123.467 46.8601 123.662 46.8992 123.75 46.9382C123.847 46.9773 123.896 47.0554 123.896 47.1726C123.896 47.2898 123.847 47.3582 123.75 47.3777H116.689C116.592 47.3582 116.543 47.2898 116.543 47.1726C116.543 46.9871 116.772 46.8601 117.231 46.7917C118.276 46.6453 118.799 46.0398 118.799 44.9753C118.877 44.4871 118.916 43.7498 118.916 42.7634ZM133.067 44.9607C133.067 45.2146 133.184 45.4197 133.419 45.5759C133.663 45.7224 133.941 45.7957 134.254 45.7957C134.566 45.7957 134.825 45.7175 135.03 45.5613C135.245 45.3953 135.392 45.3123 135.47 45.3123C135.548 45.3123 135.587 45.4197 135.587 45.6345C135.587 45.8396 135.489 46.0154 135.294 46.1619C133.829 47.2361 132.838 47.7732 132.32 47.7732C131.695 47.7732 131.187 47.1238 130.797 45.825C130.767 45.7273 130.743 45.6833 130.724 45.6931C129.513 46.6013 128.751 47.1482 128.438 47.3337C127.638 47.7927 126.832 47.866 126.021 47.5535C125.221 47.241 124.64 46.7234 124.278 46.0007C124.102 45.6296 124.015 45.2341 124.015 44.8142C124.015 43.9841 124.322 43.325 124.937 42.8367C125.553 42.3484 126.725 41.8796 128.453 41.4304C129.039 41.2742 129.561 41.074 130.02 40.8298C130.479 40.5857 130.719 40.4294 130.738 40.3611C130.767 40.2927 130.782 40.2292 130.782 40.1707V37.3582C130.782 36.2546 130.352 35.4783 129.493 35.0291C129.21 34.8826 128.868 34.8093 128.468 34.8093C128.077 34.8093 127.677 34.9656 127.267 35.2781C126.866 35.5906 126.666 36.0349 126.666 36.6111L126.739 37.1824C126.681 37.2996 126.329 37.4949 125.684 37.7683C125.04 38.0417 124.669 38.1882 124.571 38.2078C124.415 38.2078 124.337 38.0222 124.337 37.6511C124.337 37.2703 124.449 36.8503 124.674 36.3914C124.898 35.9324 125.216 35.5125 125.626 35.1316C126.583 34.2429 127.677 33.7986 128.907 33.7986C130.138 33.7986 131.139 34.1404 131.91 34.824C132.682 35.4978 133.067 36.3035 133.067 37.241V44.9607ZM126.314 44.5359C126.314 45.0046 126.495 45.4148 126.856 45.7664C127.218 46.1082 127.628 46.2791 128.087 46.2791C128.556 46.2791 129.122 46.0837 129.786 45.6931C130.45 45.2927 130.782 44.8826 130.782 44.4626V41.489C130.782 41.3816 130.758 41.3279 130.709 41.3279C130.66 41.3279 130.626 41.3328 130.606 41.3425L127.208 42.9246C126.856 43.1785 126.617 43.3933 126.49 43.5691C126.373 43.7449 126.314 44.0671 126.314 44.5359ZM146.545 42.7634L146.516 39.6726C146.516 38.4128 146.408 37.5291 146.193 37.0212C145.979 36.5134 145.705 36.1326 145.373 35.8787C145.041 35.615 144.592 35.4832 144.025 35.4832C143.469 35.4832 142.282 35.9226 140.466 36.8015C140.222 36.948 140.095 37.0847 140.085 37.2117V45.0925C140.085 46.0789 140.612 46.6453 141.667 46.7917C142.126 46.8601 142.356 46.9724 142.356 47.1287C142.356 47.2751 142.307 47.3582 142.209 47.3777H135.676C135.578 47.3582 135.529 47.2898 135.529 47.1726C135.529 46.9871 135.759 46.8601 136.218 46.7917C137.273 46.6453 137.8 46.0789 137.8 45.0925V36.6843C137.8 36.2742 137.575 35.991 137.126 35.8347C136.931 35.7664 136.721 35.7126 136.496 35.6736C136.272 35.6248 136.091 35.5808 135.954 35.5417C135.827 35.5027 135.744 35.4685 135.705 35.4392C135.676 35.4001 135.661 35.3269 135.661 35.2195C135.661 35.1023 135.734 35.0046 135.881 34.9265L139.616 33.1687C139.733 33.1101 139.807 33.0808 139.836 33.0808C140.002 33.0808 140.085 33.198 140.085 33.4324V35.7175C140.114 35.8152 140.153 35.864 140.202 35.864C140.261 35.864 140.471 35.7761 140.832 35.6003C141.672 35.1804 142.517 34.7751 143.366 34.3845C144.216 33.9939 144.919 33.7986 145.476 33.7986C147.732 33.7986 148.859 35.8542 148.859 39.9656L148.728 44.2429V45.0925C148.728 45.8542 149.108 46.3523 149.87 46.5867C150.192 46.6941 150.5 46.7722 150.793 46.821C151.096 46.8601 151.291 46.8992 151.379 46.9382C151.477 46.9773 151.525 47.0554 151.525 47.1726C151.525 47.2898 151.477 47.3582 151.379 47.3777H144.318C144.221 47.3582 144.172 47.2898 144.172 47.1726C144.172 46.9871 144.401 46.8601 144.86 46.7917C145.905 46.6453 146.428 46.0398 146.428 44.9753C146.506 44.4871 146.545 43.7498 146.545 42.7634Z" fill="#A41E16"/>
<path d="M74.0316 9.92768H69.9316L71.0066 10.8777V13.8027L66.1566 13.8027C64.1566 13.8027 63.1566 14.3444 63.1566 15.4277C63.1566 15.9444 63.4983 16.4944 64.1816 17.0777L69.2566 15.8027C70.19 16.1694 70.9566 16.711 71.5566 17.4277C72.1566 18.1277 72.4566 18.9027 72.4566 19.7527C72.4566 20.936 71.9233 21.911 70.8566 22.6777C69.79 23.4444 68.4066 23.8277 66.7066 23.8277L69.8566 26.9277L67.9566 28.3777L64.8816 23.5527C63.8983 23.3027 63.0483 22.8944 62.3316 22.3277L63.0066 19.5527H64.0816L65.8066 22.3527C67.1733 22.3027 68.2983 21.961 69.1816 21.3277C70.0816 20.6944 70.5316 19.936 70.5316 19.0527C70.5316 18.6527 70.4316 18.2694 70.2316 17.9027L66.0316 19.0277C64.8316 18.861 63.7566 18.3027 62.8066 17.3527C61.8566 16.4027 61.3816 15.4444 61.3816 14.4777C61.3816 13.7277 61.6983 13.0944 62.3316 12.5777C62.9816 12.0444 63.9233 11.7777 65.1566 11.7777L69.0566 11.7777V9.92768L60.0566 9.92768L59.3066 8.67769L59.5316 8.17768L73.5066 8.17768L74.2566 9.42768L74.0316 9.92768ZM71.7588 8.67769L71.9838 8.17768L83.0338 8.17768L83.7838 9.42768L83.5588 9.92768L72.5088 9.92768L71.7588 8.67769ZM83.3838 18.0027C82.7338 17.3527 82.0921 16.8527 81.4588 16.5027C80.8421 16.1527 80.1171 15.9777 79.2838 15.9777C78.2671 15.9777 77.4588 16.2444 76.8588 16.7777C76.2588 17.2944 75.9588 17.9777 75.9588 18.8277C75.9588 19.4444 76.1755 20.1277 76.6088 20.8777C77.0588 21.611 77.8921 22.5694 79.1088 23.7527L78.1838 24.6277C76.7505 23.261 75.7005 22.086 75.0338 21.1027C74.3671 20.1027 74.0338 19.0944 74.0338 18.0777C74.0338 16.8277 74.4838 15.8194 75.3838 15.0527C76.2838 14.286 77.4505 13.9027 78.8838 13.9027C81.0505 13.9027 82.9505 14.811 84.5838 16.6277L83.3838 18.0027ZM95.959 9.92768H92.109L93.184 10.8777V24.0277L92.584 24.2027L91.109 23.2527V18.0027L85.884 18.0027V20.4277L84.684 20.9277C84.0673 20.5444 83.409 19.9777 82.709 19.2277C82.0257 18.461 81.5423 17.7444 81.259 17.0777L81.934 16.1027H83.734L83.484 9.92768H79.834L79.084 8.67769L79.309 8.17768L95.434 8.17768L96.184 9.42768L95.959 9.92768ZM91.109 9.92768L84.509 9.92768L85.584 10.8777L85.709 16.1027L91.109 16.1027V9.92768ZM101.535 9.92768L97.6846 9.92768L98.7596 10.8777V24.0277L98.1596 24.2027L96.6846 23.2527V9.92768H94.4346L93.6846 8.67769L93.9096 8.17768H96.6846C95.5012 4.44435 93.9512 2.57769 92.0346 2.57769C91.3512 2.57769 90.7929 2.79435 90.3596 3.22768C89.9262 3.66102 89.7096 4.16935 89.7096 4.75268C89.7096 5.41935 89.9846 6.15268 90.5346 6.95269L89.8596 7.47768C88.4596 6.24435 87.7596 5.01102 87.7596 3.77768C87.7596 2.91102 88.0929 2.16935 88.7596 1.55268C89.4096 0.936018 90.2429 0.627685 91.2596 0.627685C92.7596 0.627685 94.1179 1.31102 95.3346 2.67768C96.5679 4.04435 97.4929 5.87768 98.1096 8.17768H101.01L101.76 9.42768L101.535 9.92768ZM114.227 9.92768H110.377L111.452 10.8777V24.0277L110.852 24.2027L109.377 23.2527V16.1027H104.902V18.8027L103.702 19.2777C102.552 18.1944 101.669 16.8944 101.052 15.3777L102.077 14.2027H109.377V9.92768H100.002L99.252 8.67769L99.477 8.17768L113.702 8.17768L114.452 9.42768L114.227 9.92768ZM119.798 9.92768H115.948L117.023 10.8777V24.0277L116.423 24.2027L114.948 23.2527V9.92768H112.698L111.948 8.67769L112.173 8.17768H119.273L120.023 9.42768L119.798 9.92768ZM132.491 9.92768L128.641 9.92768L129.716 10.8777V24.0277L129.116 24.2027L127.641 23.2527V16.1027H123.166V18.8027L121.966 19.2777C120.816 18.1944 119.932 16.8944 119.316 15.3777L120.341 14.2027H127.641V9.92768L118.266 9.92768L117.516 8.67769L117.741 8.17768L131.966 8.17768L132.716 9.42768L132.491 9.92768Z" fill="#A41E16"/>
</svg>
